# xmcd
#
# Track frame offsets:
#	150
#	12974
#	23661
#	39096
#	55310
#	65356
#	82120
#	97026
#	108660
#	120020
#	131909
#	153776
#	169803
#	187196
#	200370
#	212297
#
# Disc length: 3099
#
# Revision: 4
# Processed by: cddbd v1.5.1PL0 Copyright (c) Steve Scherf et al.
# Submitted via: CDex 1.51
# Normalized: r3:TSWAP
#
DISCID=ce0c1910
DTITLE=Various Artist - Love Songs
DYEAR=2003
DGENRE=Blues
TTITLE0=Andy Williams - Feelings
TTITLE1=Timi Yuro - Hurt
TTITLE2=The Platters - My Prayer
TTITLE3=Heroild Melvin and the blue notes - If you don't know me by now
TTITLE4=Brenda Lee - I'm Sorry
TTITLE5=Leo Sayer - Love Hurts
TTITLE6=Heroild Melvin and the blue notes - Me and Mrs. Jones
TTITLE7=Charles Aznavour - She
TTITLE8=The Platters - Somke gets in your eyes
TTITLE9=Aaron Neville - Tell I like it
TTITLE10=Barry White - The better love is
TTITLE11=Heroild Melvin and the blue notes - The love I lost
TTITLE12=Shirley Bassey - This is my life
TTITLE13=Percy Sledge - When a man loves a woman
TTITLE14=The Platters - Only you
TTITLE15=Sam Cooke - You send me
EXTD=YEAR: 2003
EXTT0=
EXTT1=
EXTT2=
EXTT3=
EXTT4=
EXTT5=
EXTT6=
EXTT7=
EXTT8=
EXTT9=
EXTT10=
EXTT11=
EXTT12=
EXTT13=
EXTT14=
EXTT15=
PLAYORDER=
